<?xml version="1.0" encoding="UTF-8" ?>
<!DOCTYPE svg PUBLIC "-//W3C//DTD SVG 1.1//EN" "http://www.w3.org/Graphics/SVG/1.1/DTD/svg11.dtd">
<svg width="600pt" height="600pt" viewBox="0 0 600 600" version="1.1" xmlns="http://www.w3.org/2000/svg">
<path fill="#ffffff" d=" M 0.00 0.00 L 600.00 0.00 L 600.00 600.00 L 0.00 600.00 L 0.00 0.00 Z" />
<path fill="#450b00" d=" M 247.74 19.83 C 266.75 15.05 286.30 12.31 305.92 12.20 C 319.65 12.16 333.40 11.96 347.11 12.86 C 373.37 15.62 400.14 20.56 423.50 33.47 C 433.42 39.37 443.92 47.59 446.16 59.57 C 446.43 88.68 446.25 117.81 446.30 146.92 C 446.41 153.95 446.09 161.06 444.52 167.92 C 442.99 171.48 441.66 175.17 439.54 178.44 C 437.71 181.16 435.64 183.71 433.49 186.18 C 425.15 195.18 414.31 201.41 403.22 206.41 C 387.50 213.18 370.79 217.62 353.84 219.88 C 351.59 220.44 349.26 220.53 346.96 220.67 C 345.08 221.24 343.11 221.38 341.16 221.46 C 341.17 221.27 341.18 220.89 341.18 220.69 C 342.75 220.64 344.31 220.59 345.89 220.49 C 347.86 219.61 350.03 219.48 352.16 219.30 C 353.80 218.86 355.44 218.43 357.12 218.08 C 382.98 212.35 408.68 200.58 426.02 179.97 C 435.10 169.40 440.36 155.88 441.43 142.04 C 442.89 118.16 445.88 94.38 445.89 70.43 C 441.88 82.02 431.64 89.90 421.23 95.53 C 408.27 102.37 394.16 106.86 379.84 109.86 C 338.18 118.54 294.66 118.31 253.08 109.24 C 237.00 105.47 220.95 100.18 207.09 90.98 C 202.81 88.31 199.38 84.58 195.70 81.18 C 201.44 85.68 207.71 89.51 214.48 92.27 C 239.36 102.64 266.18 107.92 293.02 109.55 C 314.34 111.25 335.82 110.42 357.06 108.03 C 372.93 106.04 388.73 102.90 403.84 97.58 C 414.11 93.81 424.35 89.05 432.15 81.18 C 437.46 75.92 444.20 70.14 443.84 61.93 C 444.47 56.11 441.07 50.81 436.82 47.17 C 428.82 40.31 418.86 36.36 408.99 33.02 C 386.03 25.79 361.98 22.83 338.03 21.40 C 315.70 20.60 293.29 20.93 271.10 23.76 C 255.17 25.78 239.28 28.80 224.05 33.98 C 212.80 37.97 201.32 43.13 193.53 52.52 C 191.32 54.94 190.27 58.09 189.25 61.12 C 190.71 51.20 197.90 43.31 205.81 37.71 C 218.32 28.87 233.03 23.72 247.74 19.83 Z" />
<path fill="#450b00" d=" M 189.38 71.36 C 190.55 81.51 190.18 91.76 190.80 101.95 C 191.98 121.98 192.70 142.16 196.77 161.86 C 198.26 169.31 202.99 175.56 209.00 180.01 C 224.86 198.30 247.13 210.12 270.36 216.10 C 269.74 216.46 268.51 217.19 267.89 217.55 C 250.34 213.59 232.87 208.04 217.51 198.46 C 210.64 194.23 204.47 188.93 199.14 182.88 C 195.24 178.78 192.91 173.48 191.05 168.21 C 189.17 159.97 189.69 151.44 189.32 143.05 C 189.09 119.15 189.92 95.25 189.38 71.36 Z" />
<path fill="#2d4d01" d=" M 499.78 115.67 C 504.89 113.72 510.67 113.70 515.82 115.55 C 515.57 118.01 515.30 120.68 513.38 122.47 C 512.05 124.46 509.43 123.31 507.49 123.53 L 507.51 122.52 C 504.22 122.47 500.97 122.91 497.78 123.68 C 485.08 129.51 478.27 142.46 471.95 154.18 C 467.84 161.15 466.00 169.08 463.29 176.62 C 462.19 175.93 461.09 175.26 459.98 174.58 C 460.52 172.38 461.17 170.22 461.83 168.06 C 464.71 161.05 467.31 153.87 471.37 147.45 C 478.17 134.91 487.00 122.65 499.78 115.67 Z" />
<path fill="#450b00" d=" M 151.04 159.03 C 158.69 152.36 167.46 146.79 177.10 143.54 C 166.66 149.00 156.55 156.02 150.26 166.21 C 145.86 173.18 145.23 182.01 147.19 189.87 C 148.87 195.33 151.35 200.57 155.11 204.91 C 163.06 214.17 173.32 221.21 184.12 226.76 C 185.72 227.58 187.34 228.35 188.92 229.20 C 191.64 230.40 194.34 231.63 197.10 232.73 C 198.34 233.26 199.58 233.76 200.83 234.29 C 202.26 234.78 203.70 235.29 205.14 235.79 C 206.38 236.26 207.62 236.74 208.87 237.22 C 209.87 237.53 210.86 237.85 211.86 238.19 C 212.88 238.49 213.89 238.81 214.91 239.14 C 217.24 239.77 219.55 240.46 221.86 241.20 C 230.79 243.60 239.84 245.48 248.93 247.16 C 250.95 247.44 252.96 247.69 254.96 248.12 C 257.29 248.39 259.65 248.61 261.94 249.16 C 264.65 249.43 267.36 249.61 270.07 249.86 C 274.34 250.70 278.72 250.52 283.04 250.85 C 291.65 252.11 300.41 251.36 309.08 251.70 C 317.00 252.74 325.04 252.32 332.99 251.74 C 351.27 251.08 369.49 249.17 387.55 246.26 C 412.00 242.12 436.41 235.90 458.58 224.53 C 468.77 219.01 479.14 212.43 485.11 202.16 C 487.42 198.18 489.04 193.63 488.62 188.97 C 488.11 184.28 488.69 179.60 488.76 174.92 C 489.92 181.91 491.03 188.94 491.29 196.03 C 491.41 199.01 490.20 201.96 490.89 204.92 C 492.35 212.87 492.45 220.96 492.72 229.02 C 494.03 241.58 493.20 254.26 494.21 266.84 C 494.42 276.58 494.35 286.32 494.46 296.06 C 494.67 302.81 493.57 309.53 492.26 316.13 C 490.14 320.87 486.97 325.05 484.36 329.53 C 472.50 346.19 454.34 356.91 435.87 364.82 C 431.57 366.60 427.24 368.31 422.83 369.80 C 413.35 373.08 403.72 375.90 393.87 377.82 C 391.93 378.29 389.97 378.65 388.04 379.12 C 379.70 380.52 371.40 382.19 362.97 382.91 C 329.12 386.95 294.71 386.58 260.91 382.16 C 239.81 378.99 218.81 374.18 199.11 365.82 C 183.03 358.97 167.32 349.84 156.00 336.27 C 157.45 337.46 158.85 338.71 160.29 339.92 L 160.62 340.17 C 183.31 358.28 211.00 368.91 239.11 375.22 C 264.33 380.67 290.21 382.72 315.99 382.20 C 322.01 381.63 328.06 381.53 334.10 381.17 C 342.45 380.31 350.81 379.39 359.13 378.19 C 382.05 374.28 404.82 368.37 425.91 358.39 C 440.92 351.09 455.32 342.03 466.89 329.87 C 472.90 323.35 477.93 315.90 481.58 307.81 C 483.34 302.70 484.37 297.34 484.79 291.95 C 486.59 280.34 487.84 268.66 488.95 256.98 C 489.89 251.04 489.27 245.00 490.14 239.07 C 490.57 228.38 490.15 217.67 490.40 206.98 C 490.47 204.76 489.69 202.64 489.21 200.51 C 486.42 207.89 481.97 214.73 476.02 219.96 C 461.42 232.58 444.01 241.54 425.84 247.79 C 424.83 248.13 423.84 248.47 422.84 248.80 C 418.29 250.33 413.72 251.79 409.13 253.17 C 400.49 255.49 391.75 257.46 382.91 258.86 C 363.47 262.49 343.70 263.66 324.02 265.14 C 310.97 265.80 297.97 264.63 284.95 264.19 C 281.05 263.26 276.97 263.81 273.09 262.83 C 270.08 262.60 267.05 262.49 264.10 261.84 C 262.03 261.60 259.96 261.41 257.90 261.18 C 255.62 260.63 253.29 260.42 250.97 260.15 C 249.00 259.68 247.00 259.36 245.03 258.91 C 241.97 258.46 238.96 257.73 235.92 257.15 C 232.66 256.32 229.38 255.62 226.11 254.83 C 224.77 254.49 223.44 254.15 222.12 253.76 C 221.55 253.64 220.41 253.42 219.84 253.30 C 218.27 252.75 216.68 252.26 215.12 251.71 C 214.57 251.59 213.48 251.34 212.93 251.21 C 211.92 250.85 210.91 250.50 209.90 250.17 C 208.65 249.69 207.40 249.23 206.16 248.76 C 204.71 248.27 203.28 247.74 201.83 247.26 C 200.60 246.76 199.36 246.29 198.13 245.81 C 196.44 245.13 194.76 244.45 193.09 243.75 C 190.35 242.61 187.65 241.37 184.93 240.17 C 170.74 232.77 156.81 223.25 148.71 209.06 C 148.59 208.65 148.37 207.83 148.26 207.43 C 148.10 206.90 147.79 205.85 147.64 205.33 C 146.42 205.82 145.38 206.64 145.29 208.05 C 143.28 217.51 143.67 227.25 142.36 236.80 C 141.28 245.21 142.16 253.69 142.02 262.13 C 140.59 260.40 140.99 257.97 140.95 255.90 C 141.19 249.28 141.28 242.66 141.35 236.03 C 141.44 228.66 140.22 221.34 140.17 213.97 C 140.07 205.31 140.02 196.65 139.94 187.99 C 139.81 181.62 141.60 175.47 143.24 169.39 C 144.73 165.27 148.04 162.10 151.04 159.03 Z" />
<path fill="#4e160c" d=" M 142.74 169.30 L 143.24 169.39 C 141.60 175.47 139.81 181.62 139.94 187.99 C 140.02 196.65 140.07 205.31 140.17 213.97 C 140.22 221.34 141.44 228.66 141.35 236.03 C 141.28 242.66 141.19 249.28 140.95 255.90 C 140.99 257.97 140.59 260.40 142.02 262.13 C 142.16 253.69 141.28 245.21 142.36 236.80 C 143.67 227.25 143.28 217.51 145.29 208.05 C 145.38 206.64 146.42 205.82 147.64 205.33 C 147.79 205.85 148.10 206.90 148.26 207.43 C 147.66 207.38 146.46 207.30 145.86 207.26 C 145.33 216.55 143.90 225.76 143.47 235.06 C 141.36 256.13 143.46 277.32 144.98 298.35 C 144.51 299.49 144.04 300.63 143.57 301.77 L 143.41 302.15 C 141.85 288.68 142.23 275.02 140.59 261.56 C 140.15 240.73 139.47 219.85 139.32 198.99 C 139.31 189.04 138.07 178.50 142.74 169.30 Z" />
<path fill="#ff0a0a" d=" M 450.11 174.73 C 453.39 174.40 456.69 174.36 459.98 174.58 C 461.09 175.26 462.19 175.93 463.29 176.62 C 468.62 179.63 471.95 185.12 473.32 190.96 C 473.32 193.34 473.34 195.71 473.36 198.09 C 472.19 202.89 469.62 207.43 465.48 210.25 C 459.12 214.42 450.87 214.40 443.76 212.46 C 441.59 211.19 439.56 209.72 437.59 208.17 C 437.49 207.96 437.29 207.54 437.19 207.33 C 434.65 202.66 433.04 197.34 434.06 191.99 C 434.38 187.11 437.48 183.13 440.67 179.69 C 440.65 180.35 440.61 181.67 440.58 182.33 C 440.48 184.32 440.41 186.30 440.41 188.29 C 441.94 190.20 443.38 192.38 445.71 193.41 C 448.80 193.89 452.46 194.19 454.97 191.93 C 457.30 190.33 458.35 187.64 459.40 185.14 C 459.40 184.32 459.40 182.66 459.40 181.84 C 457.85 177.88 454.62 174.64 450.11 174.73 Z" />
<path fill="#f58a89" d=" M 433.49 186.18 C 435.64 183.71 437.71 181.16 439.54 178.44 C 441.10 177.99 442.64 177.55 444.23 177.14 C 443.16 178.97 442.03 180.78 440.58 182.33 C 440.61 181.67 440.65 180.35 440.67 179.69 C 437.48 183.13 434.38 187.11 434.06 191.99 C 433.04 197.34 434.65 202.66 437.19 207.33 C 430.91 202.21 433.64 193.16 433.49 186.18 Z" />
<path fill="#6e4138" d=" M 270.36 216.10 C 278.65 217.99 286.93 220.07 295.41 221.01 C 292.64 221.75 289.86 220.90 287.10 220.63 C 280.61 220.26 274.22 218.95 267.89 217.55 C 268.51 217.19 269.74 216.46 270.36 216.10 Z" />
<path fill="#eae4e2" d=" M 302.11 244.27 C 303.03 242.88 305.80 244.18 304.66 245.74 C 303.73 247.12 300.96 245.82 302.11 244.27 Z" />
<path fill="#450b00" d=" M 128.32 279.48 C 129.34 279.46 128.93 281.73 127.79 281.64 C 125.64 282.42 123.62 283.57 121.33 283.97 C 114.29 288.82 105.98 291.80 99.78 297.84 C 92.47 303.41 85.48 310.33 83.18 319.54 C 80.55 326.03 79.61 333.21 81.05 340.11 C 82.82 346.03 85.10 351.95 88.95 356.86 C 96.86 367.15 107.78 374.58 118.80 381.18 C 142.02 394.72 167.71 403.33 193.42 410.77 C 218.64 416.66 244.19 421.69 270.07 423.39 C 288.37 424.49 306.73 425.82 325.06 424.78 C 335.40 424.83 345.68 423.63 355.98 422.98 C 376.56 421.45 396.84 417.31 417.01 413.06 C 438.35 408.49 458.90 400.94 478.95 392.44 C 493.42 386.65 506.49 377.92 518.90 368.61 C 525.24 363.37 531.57 357.52 534.81 349.78 C 538.05 341.68 540.06 332.31 536.38 323.98 C 530.30 309.62 516.35 300.87 502.84 294.40 C 509.03 295.89 514.69 299.03 520.25 302.04 C 529.65 307.37 538.59 314.49 543.45 324.36 C 546.69 331.09 546.31 338.75 546.30 346.02 C 546.34 382.02 546.20 418.03 546.40 454.01 C 546.29 460.93 546.79 468.49 542.42 474.37 C 541.93 470.29 542.56 466.21 542.94 462.16 C 546.20 427.98 544.39 393.40 538.47 359.62 C 538.07 359.61 537.26 359.59 536.85 359.58 C 533.11 365.74 528.79 371.60 523.13 376.15 C 514.04 385.14 503.08 391.87 492.08 398.24 C 489.74 399.54 487.36 400.75 484.92 401.84 C 482.29 402.96 479.69 404.12 477.08 405.26 C 473.78 406.60 470.48 407.92 467.18 409.25 C 465.75 409.77 464.33 410.31 462.90 410.84 C 460.22 411.86 457.53 412.84 454.83 413.79 C 451.87 414.85 448.91 415.88 445.94 416.86 C 430.32 422.35 414.10 425.80 397.86 428.86 C 384.04 431.52 370.13 433.95 356.05 434.72 C 350.43 435.62 344.69 435.25 339.07 436.16 C 325.72 436.64 312.35 437.96 299.00 436.86 C 274.92 436.16 250.79 434.58 227.13 429.86 C 218.98 428.52 210.93 426.68 202.81 425.20 L 202.19 424.83 C 194.95 423.52 187.92 421.30 180.88 419.19 C 157.79 411.88 134.74 403.65 113.93 391.05 C 99.28 382.20 84.50 371.93 75.70 356.84 C 76.80 387.06 80.13 417.22 86.20 446.87 C 87.36 453.76 88.67 460.79 92.04 466.99 C 98.41 476.12 105.62 484.84 114.61 491.53 C 123.32 497.98 132.43 504.06 142.45 508.29 C 158.78 515.18 175.74 520.56 192.94 524.82 C 221.67 530.31 250.80 533.86 280.04 534.93 C 290.68 535.68 301.37 535.49 312.02 536.13 C 339.22 536.48 366.42 535.08 393.54 533.35 C 393.86 533.55 394.49 533.93 394.81 534.13 C 394.91 534.40 395.11 534.94 395.21 535.21 C 384.47 536.03 373.71 536.51 362.98 537.29 C 337.65 538.26 312.31 538.17 286.98 537.96 C 256.19 537.72 225.47 535.13 194.94 531.24 C 173.24 527.72 151.54 523.21 131.09 514.96 C 119.27 509.71 107.54 503.86 97.78 495.24 C 93.55 491.46 89.05 487.88 85.61 483.33 C 82.60 479.43 79.00 475.85 76.90 471.35 C 75.13 464.05 73.82 456.55 74.14 449.01 C 74.07 411.33 74.47 373.64 73.63 335.97 C 73.10 329.08 76.69 322.85 80.15 317.19 C 86.58 307.37 96.67 300.91 105.03 292.96 C 107.21 291.40 109.40 289.87 111.80 288.68 C 117.04 285.14 122.74 282.42 128.32 279.48 Z" />
<path fill="#ded4d2" d=" M 162.22 285.90 C 166.04 285.38 162.10 290.57 161.22 287.11 C 161.47 286.81 161.97 286.20 162.22 285.90 Z" />
<path fill="#450b00" d=" M 143.57 301.77 C 144.04 300.63 144.51 299.49 144.98 298.35 C 145.64 306.37 147.37 314.33 147.47 322.38 C 143.62 316.37 143.15 308.69 143.57 301.77 Z" />
<path fill="#450b00" d=" M 33.94 460.96 C 43.90 454.29 54.78 449.06 65.91 444.68 C 67.47 445.17 69.04 445.67 70.60 446.19 C 57.75 452.58 44.48 459.09 34.54 469.73 C 28.96 475.73 24.41 483.60 25.20 492.08 C 25.83 501.15 31.82 508.75 38.32 514.63 C 46.85 522.59 57.53 527.49 67.29 533.68 C 85.57 544.51 105.62 551.98 125.91 558.09 C 170.80 571.25 217.46 577.37 264.07 580.05 C 308.86 582.18 353.87 581.09 398.40 575.60 C 439.79 570.33 481.23 562.10 519.89 545.98 C 538.32 538.34 555.64 527.84 570.39 514.35 C 577.40 507.64 583.23 498.19 581.49 488.10 C 579.59 476.84 570.64 468.67 562.02 462.05 C 557.57 457.86 553.28 453.45 548.11 450.13 C 561.48 457.25 575.48 464.82 584.44 477.47 C 589.54 484.43 591.47 493.77 588.62 502.03 C 585.13 511.78 577.52 519.35 569.42 525.47 C 555.52 535.42 540.95 544.60 525.15 551.24 C 513.50 556.85 501.21 560.94 488.92 564.89 C 476.98 568.51 465.14 572.47 453.09 575.69 C 442.92 578.67 432.44 580.30 422.08 582.41 C 406.17 585.53 390.15 588.07 374.07 590.12 C 344.48 592.98 314.71 594.59 284.97 593.61 C 270.89 593.30 256.87 591.95 242.80 591.23 L 242.16 590.79 C 222.94 589.76 203.94 586.28 185.00 582.97 C 138.97 574.53 93.38 561.44 51.89 539.42 C 37.62 531.35 22.86 522.09 14.53 507.48 C 10.70 501.25 9.98 493.47 11.77 486.47 C 15.39 475.36 24.71 467.47 33.94 460.96 Z" />
<path fill="#450b00" d=" M 499.10 509.06 C 510.88 502.91 523.14 497.12 532.88 487.87 C 528.50 492.77 523.87 497.54 518.17 500.90 C 511.62 504.87 505.32 509.36 498.15 512.17 C 489.21 515.79 480.28 519.56 470.93 522.00 C 459.11 525.20 447.30 528.67 435.10 530.08 C 422.33 531.72 409.64 534.46 396.74 534.73 L 396.65 533.86 L 396.81 533.17 C 416.28 530.41 436.02 528.59 455.10 523.53 C 470.24 520.30 484.86 515.05 499.10 509.06 Z" />
</svg>
