<?xml version="1.0" encoding="UTF-8" standalone="no"?><!DOCTYPE svg PUBLIC "-//W3C//DTD SVG 1.1//EN" "http://www.w3.org/Graphics/SVG/1.1/DTD/svg11.dtd"><svg width="100%" height="100%" viewBox="0 0 200 200" version="1.1" xmlns="http://www.w3.org/2000/svg" xmlns:xlink="http://www.w3.org/1999/xlink" xml:space="preserve" style="fill-rule:evenodd;clip-rule:evenodd;stroke-linejoin:round;stroke-miterlimit:1.41421;"><path d="M82.58,6.61c6.337,-1.593 12.853,-2.507 19.393,-2.543c4.577,-0.014 9.16,-0.08 13.73,0.22c8.754,0.92 17.677,2.566 25.464,6.87c3.306,1.966 6.806,4.706 7.553,8.7c0.09,9.703 0.03,19.413 0.047,29.116c0.036,2.344 -0.07,4.714 -0.594,7c-0.51,1.187 -0.953,2.417 -1.66,3.507c-0.61,0.907 -1.3,1.757 -2.016,2.58c-2.78,3 -6.394,5.077 -10.09,6.743c-5.24,2.257 -10.81,3.737 -16.46,4.49c-0.75,0.187 -1.527,0.217 -2.294,0.264c-0.626,0.19 -1.283,0.236 -1.933,0.263c0.003,-0.063 0.007,-0.19 0.007,-0.257c0.523,-0.016 1.043,-0.033 1.57,-0.066c0.656,-0.294 1.38,-0.337 2.09,-0.397c0.546,-0.147 1.093,-0.29 1.653,-0.407c8.62,-1.91 17.187,-5.833 22.967,-12.703c3.026,-3.523 4.78,-8.03 5.136,-12.643c0.487,-7.96 1.484,-15.887 1.487,-23.87c-1.337,3.863 -4.75,6.49 -8.22,8.366c-4.32,2.28 -9.023,3.777 -13.797,4.777c-13.886,2.893 -28.393,2.817 -42.253,-0.207c-5.36,-1.256 -10.71,-3.02 -15.33,-6.086c-1.427,-0.89 -2.57,-2.134 -3.797,-3.267c1.914,1.5 4.004,2.777 6.26,3.697c8.294,3.456 17.234,5.216 26.18,5.76c7.107,0.566 14.267,0.29 21.347,-0.507c5.29,-0.663 10.557,-1.71 15.593,-3.483c3.424,-1.257 6.837,-2.844 9.437,-5.467c1.77,-1.753 4.017,-3.68 3.897,-6.417c0.21,-1.94 -0.924,-3.706 -2.34,-4.92c-2.667,-2.286 -5.987,-3.603 -9.277,-4.716c-7.653,-2.41 -15.67,-3.397 -23.653,-3.874c-7.444,-0.266 -14.914,-0.156 -22.31,0.787c-5.31,0.673 -10.607,1.68 -15.684,3.407c-3.75,1.33 -7.576,3.05 -10.173,6.18c-0.737,0.806 -1.087,1.856 -1.427,2.866c0.487,-3.306 2.884,-5.936 5.52,-7.803c4.17,-2.947 9.074,-4.663 13.977,-5.96Z" style="fill:#450b00;fill-rule:nonzero;"/><path d="M63.127,23.787c0.39,3.383 0.266,6.8 0.473,10.196c0.393,6.677 0.633,13.404 1.99,19.97c0.497,2.484 2.073,4.567 4.077,6.05c5.286,6.097 12.71,10.037 20.453,12.03c-0.207,0.12 -0.617,0.364 -0.823,0.484c-5.85,-1.32 -11.674,-3.17 -16.794,-6.364c-2.29,-1.41 -4.346,-3.176 -6.123,-5.193c-1.3,-1.367 -2.077,-3.133 -2.697,-4.89c-0.626,-2.747 -0.453,-5.59 -0.576,-8.387c-0.077,-7.966 0.2,-15.933 0.02,-23.896Z" style="fill:#450b00;fill-rule:nonzero;"/><path d="M166.593,38.557c1.704,-0.65 3.63,-0.657 5.347,-0.04c-0.083,0.82 -0.173,1.71 -0.813,2.306c-0.444,0.664 -1.317,0.28 -1.964,0.354l0.007,-0.337c-1.097,-0.017 -2.18,0.13 -3.243,0.387c-4.234,1.943 -6.504,6.26 -8.61,10.166c-1.37,2.324 -1.984,4.967 -2.887,7.48c-0.367,-0.23 -0.733,-0.453 -1.103,-0.68c0.18,-0.733 0.396,-1.453 0.616,-2.173c0.96,-2.337 1.827,-4.73 3.18,-6.87c2.267,-4.18 5.21,-8.267 9.47,-10.593Z" style="fill:#2d4d01;fill-rule:nonzero;"/><path d="M50.347,53.01c2.55,-2.223 5.473,-4.08 8.686,-5.163c-3.48,1.82 -6.85,4.16 -8.946,7.556c-1.467,2.324 -1.677,5.267 -1.024,7.887c0.56,1.82 1.387,3.567 2.64,5.013c2.65,3.087 6.07,5.434 9.67,7.284c0.534,0.273 1.074,0.53 1.6,0.813c0.907,0.4 1.807,0.81 2.727,1.177c0.413,0.176 0.827,0.343 1.243,0.52c0.477,0.163 0.957,0.333 1.437,0.5c0.413,0.156 0.827,0.316 1.243,0.476c0.334,0.104 0.664,0.21 0.997,0.324c0.34,0.1 0.677,0.206 1.017,0.316c0.776,0.21 1.546,0.44 2.316,0.687c2.977,0.8 5.994,1.427 9.024,1.987c0.673,0.093 1.343,0.176 2.01,0.32c0.776,0.09 1.563,0.163 2.326,0.346c0.904,0.09 1.807,0.15 2.71,0.234c1.424,0.28 2.884,0.22 4.324,0.33c2.87,0.42 5.79,0.17 8.68,0.283c2.64,0.347 5.32,0.207 7.97,0.013c6.093,-0.22 12.166,-0.856 18.186,-1.826c8.15,-1.38 16.287,-3.454 23.677,-7.244c3.397,-1.84 6.853,-4.033 8.843,-7.456c0.77,-1.327 1.31,-2.844 1.17,-4.397c-0.17,-1.563 0.024,-3.123 0.047,-4.683c0.387,2.33 0.757,4.673 0.843,7.036c0.04,0.994 -0.363,1.977 -0.133,2.964c0.487,2.65 0.52,5.346 0.61,8.033c0.437,4.187 0.16,8.413 0.497,12.607c0.07,3.246 0.046,6.493 0.083,9.74c0.07,2.25 -0.297,4.49 -0.733,6.69c-0.707,1.58 -1.764,2.973 -2.634,4.466c-3.953,5.554 -10.006,9.127 -16.163,11.764c-1.433,0.593 -2.877,1.163 -4.347,1.66c-3.16,1.093 -6.37,2.033 -9.653,2.673c-0.647,0.157 -1.3,0.277 -1.943,0.433c-2.78,0.467 -5.547,1.024 -8.357,1.264c-11.283,1.346 -22.753,1.223 -34.02,-0.25c-7.033,-1.057 -14.033,-2.66 -20.6,-5.447c-5.36,-2.283 -10.597,-5.327 -14.37,-9.85c0.483,0.397 0.95,0.813 1.43,1.217l0.11,0.083c7.563,6.037 16.793,9.58 26.163,11.683c8.407,1.817 17.034,2.5 25.627,2.327c2.007,-0.19 4.023,-0.223 6.037,-0.343c2.783,-0.287 5.57,-0.594 8.343,-0.994c7.64,-1.303 15.23,-3.273 22.26,-6.6c5.003,-2.433 9.803,-5.453 13.66,-9.506c2.003,-2.174 3.68,-4.657 4.897,-7.354c0.586,-1.703 0.93,-3.49 1.07,-5.286c0.6,-3.87 1.016,-7.764 1.386,-11.657c0.314,-1.98 0.107,-3.993 0.397,-5.97c0.143,-3.563 0.003,-7.133 0.087,-10.697c0.023,-0.74 -0.237,-1.446 -0.397,-2.156c-0.93,2.46 -2.413,4.74 -4.397,6.483c-4.866,4.207 -10.67,7.193 -16.726,9.277c-0.337,0.113 -0.667,0.226 -1,0.336c-1.517,0.51 -3.04,0.997 -4.57,1.457c-2.88,0.773 -5.794,1.43 -8.74,1.897c-6.48,1.21 -13.07,1.6 -19.63,2.093c-4.35,0.22 -8.684,-0.17 -13.024,-0.317c-1.3,-0.31 -2.66,-0.126 -3.953,-0.453c-1.003,-0.077 -2.013,-0.113 -2.997,-0.33c-0.69,-0.08 -1.38,-0.143 -2.066,-0.22c-0.76,-0.183 -1.537,-0.253 -2.31,-0.343c-0.657,-0.157 -1.324,-0.264 -1.98,-0.414c-1.02,-0.15 -2.024,-0.393 -3.037,-0.586c-1.087,-0.277 -2.18,-0.51 -3.27,-0.774c-0.447,-0.113 -0.89,-0.226 -1.33,-0.356c-0.19,-0.04 -0.57,-0.114 -0.76,-0.154c-0.523,-0.183 -1.053,-0.346 -1.573,-0.53c-0.184,-0.04 -0.547,-0.123 -0.73,-0.166c-0.337,-0.12 -0.674,-0.237 -1.01,-0.347c-0.417,-0.16 -0.834,-0.313 -1.247,-0.47c-0.483,-0.163 -0.96,-0.34 -1.443,-0.5c-0.41,-0.167 -0.824,-0.323 -1.234,-0.483c-0.563,-0.227 -1.123,-0.454 -1.68,-0.687c-0.913,-0.38 -1.813,-0.793 -2.72,-1.193c-4.73,-2.467 -9.373,-5.64 -12.073,-10.37c-0.04,-0.137 -0.113,-0.41 -0.15,-0.544c-0.053,-0.176 -0.157,-0.526 -0.207,-0.7c-0.406,0.164 -0.753,0.437 -0.783,0.907c-0.67,3.153 -0.54,6.4 -0.977,9.583c-0.36,2.804 -0.066,5.63 -0.113,8.444c-0.477,-0.577 -0.343,-1.387 -0.357,-2.077c0.08,-2.207 0.11,-4.413 0.134,-6.623c0.03,-2.457 -0.377,-4.897 -0.394,-7.354c-0.033,-2.886 -0.05,-5.773 -0.076,-8.66c-0.044,-2.123 0.553,-4.173 1.1,-6.2c0.496,-1.373 1.6,-2.43 2.6,-3.453Z" style="fill:#450b00;fill-rule:nonzero;"/><path d="M47.58,56.433l0.167,0.03c-0.547,2.027 -1.144,4.077 -1.1,6.2c0.026,2.887 0.043,5.774 0.076,8.66c0.017,2.457 0.424,4.897 0.394,7.354c-0.024,2.21 -0.054,4.416 -0.134,6.623c0.014,0.69 -0.12,1.5 0.357,2.077c0.047,-2.814 -0.247,-5.64 0.113,-8.444c0.437,-3.183 0.307,-6.43 0.977,-9.583c0.03,-0.47 0.377,-0.743 0.783,-0.907c0.05,0.174 0.154,0.524 0.207,0.7c-0.2,-0.016 -0.6,-0.043 -0.8,-0.056c-0.177,3.096 -0.653,6.166 -0.797,9.266c-0.703,7.024 -0.003,14.087 0.504,21.097c-0.157,0.38 -0.314,0.76 -0.47,1.14l-0.054,0.127c-0.52,-4.49 -0.393,-9.044 -0.94,-13.53c-0.146,-6.944 -0.373,-13.904 -0.423,-20.857c-0.003,-3.317 -0.417,-6.83 1.14,-9.897Z" style="fill:#4e160c;fill-rule:nonzero;"/><path d="M150.037,58.243c1.093,-0.11 2.193,-0.123 3.29,-0.05c0.37,0.227 0.736,0.45 1.103,0.68c1.777,1.004 2.887,2.834 3.343,4.78c0,0.794 0.007,1.584 0.014,2.377c-0.39,1.6 -1.247,3.113 -2.627,4.053c-2.12,1.39 -4.87,1.384 -7.24,0.737c-0.723,-0.423 -1.4,-0.913 -2.057,-1.43c-0.033,-0.07 -0.1,-0.21 -0.133,-0.28c-0.847,-1.557 -1.383,-3.33 -1.043,-5.113c0.106,-1.627 1.14,-2.954 2.203,-4.1c-0.007,0.22 -0.02,0.66 -0.03,0.88c-0.033,0.663 -0.057,1.323 -0.057,1.986c0.51,0.637 0.99,1.364 1.767,1.707c1.03,0.16 2.25,0.26 3.087,-0.493c0.776,-0.534 1.126,-1.43 1.476,-2.264c0,-0.273 0,-0.826 0,-1.1c-0.516,-1.32 -1.593,-2.4 -3.096,-2.37Z" style="fill:#ff0a0a;fill-rule:nonzero;"/><path d="M144.497,62.06c0.716,-0.823 1.406,-1.673 2.016,-2.58c0.52,-0.15 1.034,-0.297 1.564,-0.433c-0.357,0.61 -0.734,1.213 -1.217,1.73c0.01,-0.22 0.023,-0.66 0.03,-0.88c-1.063,1.146 -2.097,2.473 -2.203,4.1c-0.34,1.783 0.196,3.556 1.043,5.113c-2.093,-1.707 -1.183,-4.723 -1.233,-7.05Z" style="fill:#f58a89;fill-rule:nonzero;"/><path d="M90.12,72.033c2.763,0.63 5.523,1.324 8.35,1.637c-0.923,0.247 -1.85,-0.037 -2.77,-0.127c-2.163,-0.123 -4.293,-0.56 -6.403,-1.026c0.206,-0.12 0.616,-0.364 0.823,-0.484Z" style="fill:#6e4138;fill-rule:nonzero;"/><path d="M100.703,81.423c0.307,-0.463 1.23,-0.03 0.85,0.49c-0.31,0.46 -1.233,0.027 -0.85,-0.49Z" style="fill:#eae4e2;fill-rule:nonzero;"/><path d="M42.773,93.16c0.34,-0.007 0.204,0.75 -0.176,0.72c-0.717,0.26 -1.39,0.643 -2.154,0.777c-2.346,1.616 -5.116,2.61 -7.183,4.623c-2.437,1.857 -4.767,4.163 -5.533,7.233c-0.877,2.164 -1.19,4.557 -0.71,6.857c0.59,1.973 1.35,3.947 2.633,5.583c2.637,3.43 6.277,5.907 9.95,8.107c7.74,4.513 16.303,7.383 24.873,9.863c8.407,1.964 16.924,3.64 25.55,4.207c6.1,0.367 12.22,0.81 18.33,0.463c3.447,0.017 6.874,-0.383 10.307,-0.6c6.86,-0.51 13.62,-1.89 20.343,-3.306c7.114,-1.524 13.964,-4.04 20.647,-6.874c4.823,-1.93 9.18,-4.84 13.317,-7.943c2.113,-1.747 4.223,-3.697 5.303,-6.277c1.08,-2.7 1.75,-5.823 0.523,-8.6c-2.026,-4.786 -6.676,-7.703 -11.18,-9.86c2.064,0.497 3.95,1.544 5.804,2.547c3.133,1.777 6.113,4.15 7.733,7.44c1.08,2.243 0.953,4.797 0.95,7.22c0.013,12 -0.033,24.003 0.033,35.997c-0.036,2.306 0.13,4.826 -1.326,6.786c-0.164,-1.36 0.046,-2.72 0.173,-4.07c1.087,-11.393 0.483,-22.92 -1.49,-34.18c-0.133,-0.003 -0.403,-0.01 -0.54,-0.013c-1.247,2.053 -2.687,4.007 -4.573,5.523c-3.03,2.997 -6.684,5.24 -10.35,7.364c-0.78,0.433 -1.574,0.836 -2.387,1.2c-0.877,0.373 -1.743,0.76 -2.613,1.14c-1.1,0.446 -2.2,0.886 -3.3,1.33c-0.477,0.173 -0.95,0.353 -1.427,0.53c-0.893,0.34 -1.79,0.666 -2.69,0.983c-0.987,0.353 -1.973,0.697 -2.963,1.023c-5.207,1.83 -10.614,2.98 -16.027,4c-4.607,0.887 -9.243,1.697 -13.937,1.954c-1.873,0.3 -3.786,0.176 -5.66,0.48c-4.45,0.16 -8.906,0.6 -13.356,0.233c-8.027,-0.233 -16.07,-0.76 -23.957,-2.333c-2.717,-0.447 -5.4,-1.06 -8.107,-1.554l-0.206,-0.123c-2.414,-0.437 -4.757,-1.177 -7.104,-1.88c-7.696,-2.437 -15.38,-5.18 -22.316,-9.38c-4.884,-2.95 -9.81,-6.373 -12.744,-11.403c0.367,10.073 1.477,20.126 3.5,30.01c0.387,2.296 0.824,4.64 1.947,6.706c2.123,3.044 4.527,5.95 7.523,8.18c2.904,2.15 5.94,4.177 9.28,5.587c5.444,2.297 11.097,4.09 16.83,5.51c9.577,1.83 19.287,3.013 29.034,3.37c3.546,0.25 7.11,0.187 10.66,0.4c9.066,0.117 18.133,-0.35 27.173,-0.927c0.107,0.067 0.317,0.194 0.423,0.26c0.034,0.09 0.1,0.27 0.134,0.36c-3.58,0.274 -7.167,0.434 -10.744,0.694c-8.443,0.323 -16.89,0.293 -25.333,0.223c-10.263,-0.08 -20.503,-0.943 -30.68,-2.24c-7.233,-1.173 -14.467,-2.677 -21.283,-5.427c-3.94,-1.75 -7.85,-3.7 -11.104,-6.573c-1.41,-1.26 -2.91,-2.453 -4.056,-3.97c-1.004,-1.3 -2.204,-2.493 -2.904,-3.993c-0.59,-2.434 -1.026,-4.934 -0.92,-7.447c-0.023,-12.56 0.11,-25.123 -0.17,-37.68c-0.176,-2.297 1.02,-4.373 2.174,-6.26c2.143,-3.273 5.506,-5.427 8.293,-8.077c0.727,-0.52 1.457,-1.03 2.257,-1.426c1.746,-1.18 3.646,-2.087 5.506,-3.067Z" style="fill:#450b00;fill-rule:nonzero;"/><path d="M54.073,95.3c1.274,-0.173 -0.04,1.557 -0.333,0.403c0.083,-0.1 0.25,-0.303 0.333,-0.403Z" style="fill:#ded4d2;fill-rule:nonzero;"/><path d="M47.857,100.59c0.156,-0.38 0.313,-0.76 0.47,-1.14c0.22,2.673 0.796,5.327 0.83,8.01c-1.284,-2.003 -1.44,-4.563 -1.3,-6.87Z" style="fill:#450b00;fill-rule:nonzero;"/><path d="M11.313,153.653c3.32,-2.223 6.947,-3.966 10.657,-5.426c0.52,0.163 1.043,0.33 1.563,0.503c-4.283,2.13 -8.706,4.3 -12.02,7.847c-1.86,2 -3.376,4.623 -3.113,7.45c0.21,3.023 2.207,5.556 4.373,7.516c2.844,2.654 6.404,4.287 9.657,6.35c6.093,3.61 12.777,6.1 19.54,8.137c14.963,4.387 30.517,6.427 46.053,7.32c14.93,0.71 29.934,0.347 44.777,-1.483c13.797,-1.757 27.61,-4.5 40.497,-9.874c6.143,-2.546 11.916,-6.046 16.833,-10.543c2.337,-2.237 4.28,-5.387 3.7,-8.75c-0.633,-3.753 -3.617,-6.477 -6.49,-8.683c-1.483,-1.397 -2.913,-2.867 -4.637,-3.974c4.457,2.374 9.124,4.897 12.11,9.114c1.7,2.32 2.344,5.433 1.394,8.186c-1.164,3.25 -3.7,5.774 -6.4,7.814c-4.634,3.316 -9.49,6.376 -14.757,8.59c-3.883,1.87 -7.98,3.233 -12.077,4.55c-3.98,1.206 -7.926,2.526 -11.943,3.6c-3.39,0.993 -6.883,1.536 -10.337,2.24c-5.303,1.04 -10.643,1.886 -16.003,2.57c-9.863,0.953 -19.787,1.49 -29.7,1.163c-4.693,-0.103 -9.367,-0.553 -14.057,-0.793l-0.213,-0.147c-6.407,-0.343 -12.74,-1.503 -19.053,-2.607c-15.344,-2.813 -30.54,-7.176 -44.37,-14.516c-4.757,-2.69 -9.677,-5.777 -12.454,-10.647c-1.276,-2.077 -1.516,-4.67 -0.92,-7.003c1.207,-3.704 4.314,-6.334 7.39,-8.504Z" style="fill:#450b00;fill-rule:nonzero;"/><path d="M166.367,169.687c3.926,-2.05 8.013,-3.98 11.26,-7.064c-1.46,1.634 -3.004,3.224 -4.904,4.344c-2.183,1.323 -4.283,2.82 -6.673,3.756c-2.98,1.207 -5.957,2.464 -9.073,3.277c-3.94,1.067 -7.877,2.223 -11.944,2.693c-4.256,0.547 -8.486,1.46 -12.786,1.55l-0.03,-0.29l0.053,-0.23c6.49,-0.92 13.07,-1.526 19.43,-3.213c5.047,-1.077 9.92,-2.827 14.667,-4.823Z" style="fill:#450b00;fill-rule:nonzero;"/></svg>
